<svg width="40" height="40" viewBox="0 0 65 65" fill="none" xmlns="http://www.w3.org/2000/svg">
<path d="M44.8186 47.9637V49.7984C44.8186 54.4304 41.0635 58.1855 36.4315 58.1855H34.5968C33.4387 58.1855 32.5 57.2468 32.5 56.0887V54.254C32.5 49.622 36.2551 45.8669 40.8871 45.8669H42.7218C43.8799 45.8669 44.8186 46.8056 44.8186 47.9637Z" fill="#D1E7FF"/>
<path d="M44.8187 49.7984C44.8187 54.4304 41.0636 58.1855 36.4316 58.1855H34.5969C33.5709 58.1855 33.6958 56.8784 34.5198 56.8759C34.6983 56.8754 34.8974 56.875 35.12 56.875C39.7522 56.875 43.5082 53.1189 43.5082 48.4867C43.5082 48.2641 43.5086 48.0651 43.5091 47.8867C43.5116 47.0569 44.7607 46.9983 44.8142 47.8264C44.8217 47.9422 44.8187 49.8962 44.8187 49.7984Z" fill="#B9DCFF"/>
<path d="M32.4999 54.254V56.0887C32.4999 57.2468 31.5612 58.1855 30.4032 58.1855H28.5685C23.9365 58.1855 20.1814 54.4304 20.1814 49.7984V47.9637C20.1814 46.8056 21.1201 45.8669 22.2782 45.8669H24.1128C28.7449 45.8669 32.4999 49.622 32.4999 54.254Z" fill="#D1E7FF"/>
<path d="M32.5001 40.8871C43.2118 40.8871 51.8953 32.2036 51.8953 21.492C51.8953 10.7803 43.2118 2.0968 32.5001 2.0968C21.7885 2.0968 13.105 10.7803 13.105 21.492C13.105 32.2036 21.7885 40.8871 32.5001 40.8871Z" fill="#D1E7FF"/>
<path d="M33.0126 2.10341C35.6274 2.17129 36.0214 5.9143 33.4725 6.50179C24.5358 8.56121 17.7654 16.6839 18.3846 26.6458C18.5474 29.2638 14.8341 29.9301 14.0314 27.4328C9.93238 14.6789 19.7462 1.75915 33.0126 2.10341Z" fill="#E8F3FF"/>
<path d="M22.8024 49.2742C22.8024 51.3153 22.588 53.5802 24.4376 56.0861C24.733 56.4863 24.2356 56.9983 23.8257 56.7168C21.6248 55.2056 20.1814 52.6711 20.1814 49.7984V47.9637C20.1814 46.8056 21.1201 45.8669 22.2782 45.8669C24.2444 45.8669 25.5208 45.7558 27.3234 46.5028C27.6932 46.656 27.5652 47.2119 27.1654 47.192C26.535 47.1605 25.8385 47.1774 24.8997 47.1774C23.7417 47.1774 22.8024 48.1162 22.8024 49.2742Z" fill="#E8F3FF"/>
<path d="M29.628 40.6758C28.1541 40.4571 28.3046 38.2804 29.7946 38.2765C39.8548 38.2501 49.3561 30.3452 49.2738 18.7304C49.2632 17.227 51.4456 17.0564 51.6725 18.5426C53.6471 31.4854 42.5594 42.5953 29.628 40.6758Z" fill="#B9DCFF"/>
<path d="M55.9922 21.4919C55.9922 9.64123 46.3509 0 34.5002 0C22.6495 0 13.0083 9.64123 13.0083 21.4919C13.0083 32.6352 21.5331 41.824 32.4035 42.8814V45.8727C30.65 44.5533 28.4715 43.7702 26.1131 43.7702H22.1817C21.0237 43.7702 20.0849 44.709 20.0849 45.8669V49.7984C20.0849 55.5792 24.788 60.2823 30.5688 60.2823H32.4035V62.9032C32.4035 64.0612 33.3423 65 34.5002 65C35.6583 65 36.597 64.0612 36.597 62.9032V60.2823H38.4317C44.2125 60.2823 48.9156 55.5792 48.9156 49.7984V45.8669C48.9156 44.709 47.9769 43.7702 46.8188 43.7702H42.8873C40.529 43.7702 38.3504 44.5533 36.597 45.8727V42.8814C47.4673 41.824 55.9922 32.6352 55.9922 21.4919ZM17.2018 21.4919C17.2018 11.9536 24.9619 4.19355 34.5002 4.19355C44.0386 4.19355 51.7986 11.9536 51.7986 21.4919C51.7986 31.0303 44.0386 38.7903 34.5002 38.7903C24.9619 38.7903 17.2018 31.0303 17.2018 21.4919ZM24.2785 49.7984V47.9637H26.1131C29.5816 47.9637 32.4035 50.7856 32.4035 54.254V56.0887H30.5688C27.1003 56.0887 24.2785 53.2668 24.2785 49.7984ZM42.8873 47.9637H44.722V49.7984C44.722 53.2668 41.9003 56.0887 38.4317 56.0887H36.597V54.254C36.597 50.7856 39.4187 47.9637 42.8873 47.9637ZM34.5002 35.7045C33.3423 35.7045 32.4035 34.7657 32.4035 33.6077V31.6553C29.969 30.8363 28.2099 28.534 28.2099 25.827C28.2099 24.6691 29.1487 23.7302 30.3067 23.7302C31.4646 23.7302 32.4035 24.6691 32.4035 25.827C32.4035 26.9051 33.2806 27.7823 34.3587 27.7823H34.6416C35.7199 27.7823 36.597 26.9051 36.597 25.827C36.597 24.9932 36.0674 24.2504 35.2791 23.9786L32.3543 22.97C26.8312 21.0655 26.8418 13.1997 32.4035 11.3287V9.37612C32.4035 8.21817 33.3423 7.27934 34.5002 7.27934C35.6583 7.27934 36.597 8.21817 36.597 9.37612V11.3287C39.0315 12.1477 40.7906 14.4501 40.7906 17.157C40.7906 18.3149 39.8519 19.2538 38.6938 19.2538C37.5357 19.2538 36.597 18.3149 36.597 17.157C36.597 16.0789 35.7199 15.2017 34.6416 15.2017H34.3587C33.2806 15.2017 32.4035 16.0789 32.4035 17.157C32.4035 17.9908 32.9332 18.7336 33.7214 19.0054L36.6462 20.014C42.1694 21.9185 42.1587 29.7842 36.597 31.6551V33.6077C36.597 34.7658 35.6583 35.7045 34.5002 35.7045Z" fill="#6998EC"/>
</svg>
